  0
SECTION
  2
HEADER
  9
$ACADVER
  1
AC1024
  9
$INSUNITS
 70
4
  0
ENDSEC
  0
SECTION
  2
TABLES
  0
TABLE
  2
LAYER
 70
4
  0
LAYER
  2
ROOMS
 70
0
 62
2
  6
CONTINUOUS
  0
LAYER
  2
WALLS
 70
0
 62
7
  6
CONTINUOUS
  0
LAYER
  2
DOORS
 70
0
 62
3
  6
CONTINUOUS
  0
LAYER
  2
LABELS
 70
0
 62
5
  6
CONTINUOUS
  0
ENDTAB
  0
ENDSEC
  0
SECTION
  2
ENTITIES
  0
LINE
  8
WALLS
 10
-5.0
 20
-5.0
 30
0.0
 11
85.0
 21
-5.0
 31
0.0
  0
LINE
  8
WALLS
 10
85.0
 20
-5.0
 30
0.0
 11
85.0
 21
65.0
 31
0.0
  0
LINE
  8
WALLS
 10
85.0
 20
65.0
 30
0.0
 11
-5.0
 21
65.0
 31
0.0
  0
LINE
  8
WALLS
 10
-5.0
 20
65.0
 30
0.0
 11
-5.0
 21
-5.0
 31
0.0
  0
LINE
  8
WALLS
 10
55.0
 20
-5.0
 30
0.0
 11
145.0
 21
-5.0
 31
0.0
  0
LINE
  8
WALLS
 10
145.0
 20
-5.0
 30
0.0
 11
145.0
 21
65.0
 31
0.0
  0
LINE
  8
WALLS
 10
145.0
 20
65.0
 30
0.0
 11
55.0
 21
65.0
 31
0.0
  0
LINE
  8
WALLS
 10
55.0
 20
65.0
 30
0.0
 11
55.0
 21
-5.0
 31
0.0
  0
LINE
  8
WALLS
 10
-5.0
 20
65.0
 30
0.0
 11
145.0
 21
65.0
 31
0.0
  0
LINE
  8
WALLS
 10
145.0
 20
65.0
 30
0.0
 11
145.0
 21
105.0
 31
0.0
  0
LINE
  8
WALLS
 10
145.0
 20
105.0
 30
0.0
 11
-5.0
 21
105.0
 31
0.0
  0
LINE
  8
WALLS
 10
-5.0
 20
105.0
 30
0.0
 11
-5.0
 21
65.0
 31
0.0
  0
LINE
  8
WALLS
 10
0.0
 20
20.0
 30
0.0
 11
80.0
 21
20.0
 31
0.0
  0
LINE
  8
WALLS
 10
80.0
 20
0.0
 30
0.0
 11
80.0
 21
65.0
 31
0.0
  0
LINE
  8
WALLS
 10
60.0
 20
0.0
 30
0.0
 11
60.0
 21
65.0
 31
0.0
  0
LINE
  8
WALLS
 10
55.0
 20
20.0
 30
0.0
 11
145.0
 21
20.0
 31
0.0
  0
LINE
  8
WALLS
 10
-5.0
 20
85.0
 30
0.0
 11
145.0
 21
85.0
 31
0.0
  0
LINE
  8
WALLS
 10
70.0
 20
65.0
 30
0.0
 11
70.0
 21
105.0
 31
0.0
  0
LINE
  8
DOORS
 10
39.0
 20
20.0
 30
0.0
 11
41.0
 21
20.0
 31
0.0
  0
LINE
  8
DOORS
 10
54.0
 20
40.0
 30
0.0
 11
56.0
 21
40.0
 31
0.0
  0
LINE
  8
DOORS
 10
79.0
 20
40.0
 30
0.0
 11
81.0
 21
40.0
 31
0.0
  0
LINE
  8
DOORS
 10
99.0
 20
10.0
 30
0.0
 11
101.0
 21
10.0
 31
0.0
  0
LINE
  8
DOORS
 10
39.0
 20
65.0
 30
0.0
 11
41.0
 21
65.0
 31
0.0
  0
LINE
  8
DOORS
 10
99.0
 20
65.0
 30
0.0
 11
101.0
 21
65.0
 31
0.0
  0
LINE
  8
DOORS
 10
0.0
 20
84.0
 30
0.0
 11
0.0
 21
86.0
 31
0.0
  0
TEXT
  8
ROOMS
 10
5.0
 20
5.0
 30
0.0
 40
2.5
  1
Main Room Rig Base
  0
TEXT
  8
ROOMS
 10
5.0
 20
25.0
 30
0.0
 40
2.5
  1
Control Room Rig Base
  0
TEXT
  8
ROOMS
 10
42.0
 20
5.0
 30
0.0
 40
2.5
  1
Storage Room Rig Base
  0
TEXT
  8
ROOMS
 10
62.0
 20
25.0
 30
0.0
 40
2.5
  1
Pump Room Drilling Area
  0
TEXT
  8
ROOMS
 10
105.0
 20
25.0
 30
0.0
 40
2.5
  1
Room 304 Drilling Area
  0
TEXT
  8
ROOMS
 10
105.0
 20
5.0
 30
0.0
 40
2.5
  1
Room 305 Drilling Area
  0
TEXT
  8
ROOMS
 10
5.0
 20
70.0
 30
0.0
 40
2.5
  1
Office 101
  0
TEXT
  8
ROOMS
 10
42.0
 20
70.0
 30
0.0
 40
2.5
  1
Medical Bay
  0
TEXT
  8
ROOMS
 10
105.0
 20
70.0
 30
0.0
 40
2.5
  1
Generator Room
  0
TEXT
  8
LABELS
 10
5.0
 20
55.0
 30
0.0
 40
1.8
  1
RIG BASE ZONE
  0
TEXT
  8
LABELS
 10
62.0
 20
55.0
 30
0.0
 40
1.8
  1
DRILLING ZONE
  0
TEXT
  8
LABELS
 10
5.0
 20
98.0
 30
0.0
 40
1.8
  1
OFFICE ZONE
  0
ENDSEC
  0
EOF
